<svg xmlns="http://www.w3.org/2000/svg" id="Layer_1" data-name="Layer 1" viewBox="0 0 53.19 73.24"><defs><style>.cls-1{fill:#fff;}</style></defs><title>UI prototype</title><path class="cls-1" d="M31.33.06c.72,20.58,1.44,28,2.15,48.45,1.13,0,2.34-.32,3.22.09s1.61,1.56,2.38,2.39c1,1,1.83,2.08,2.85,3a2.57,2.57,0,0,0,1.6.48c1.06,0,1.71-.48,1.21-1.62s-1-2.06-1.59-3.06c-2.64-4.57-2.66-9.3-.81-14.12a9.21,9.21,0,0,1,.95-1.55l.38.1a9.18,9.18,0,0,1-.2,1.5,12.44,12.44,0,0,0-.12,8.34,28.53,28.53,0,0,0,2.24,4.32c2,3.33,1.3,5.24-.7,8.21a3.08,3.08,0,0,1-3.79,1.22A2.56,2.56,0,0,0,44,61a11.89,11.89,0,0,0,5-2c3.89-2.74,3-2.15.48-5.07a11.74,11.74,0,0,1-2.54-11.77c0-.07.14-.11.43-.32a8,8,0,0,1,.12,1.26,9.65,9.65,0,0,0,3.26,8.13A6.76,6.76,0,0,1,53,58.13a3.57,3.57,0,0,1-.9,1.73,19.22,19.22,0,0,1-7,4.86c1.32.66,2.64,1.33,4,2,.69.33,1.55.46,1,1.6-.46.93-.84,1.76-2.12,1.08s-2.35-1.1-3.49-1.7c-.65-.35-1-.4-1.54.3-1.53,2.12-1.57,2.09-4,.9l-1.16-.55c-1.95,1.59-3.63,3.06-5.43,4.37a2.21,2.21,0,0,1-3-.07c-.57-.47-1.72-.37-2.6-.31-3.86.25-7.49-.37-10.58-2.85a11.28,11.28,0,0,1-4.62-8.28C11.48,60,10.75,60,10,59.77,6.88,59,4,57.79,2,55.25a13.82,13.82,0,0,1-2-3.73C1.71,55.9,5.35,57.78,9.49,59c1.89.58,1.89.55,2.57-1.88,0,2.52,0,2.47,2.73,2.59,4,.18,7.84-.35,11.08-3.06a13,13,0,0,0,3.76-5.35c1.06-2.64-.17-4.55-1.91-6.29A8.33,8.33,0,0,1,25.5,36.7c0-.11.16-.21.43-.56,0,4.08,3.4,5.94,5,9.28a8,8,0,0,0,.21-1.21c-.29-9.16-.58-13.52-.91-22.68-.31-8.77-.66-9.23-1-18A5,5,0,0,1,30.75,0ZM23.07,62.28c-.59-1-1.13-1.9-2.55-1.77a46.67,46.67,0,0,1-5.29,0c-1.08,0-2.15-.17-3.36-.27a10.91,10.91,0,0,0,5.27,8.82c5.16,3.21,10.39,2.46,15.42-.34a13.75,13.75,0,0,0,6.83-9.19,5.5,5.5,0,0,0-2.31-6.14c-1.06,1.73-2.48,1.43-4.07.5-1.07,5.17-2.87,9.86-6.51,13.65,3-4.46,5-9.23,4.49-14.81C29.54,56.89,27.31,60.32,23.07,62.28Zm21.4,2.27c-2-.46-3.5-1.29-4-3.64l-1.6,4.7a12.52,12.52,0,0,0,3.36,1.29c.49,0,1.09-1.15,1.64-1.78C44,65,44.13,64.87,44.47,64.55Z"></path></svg>